<?xml version="1.0" encoding="UTF-8" standalone="no"?>
<!-- Created with Inkscape (http://www.inkscape.org/) -->

<svg
   width="129.19197mm"
   height="135.4662mm"
   viewBox="0 0 129.19197 135.4662"
   version="1.1"
   id="svg5"
   xml:space="preserve"
   xmlns:inkscape="http://www.inkscape.org/namespaces/inkscape"
   xmlns:sodipodi="http://sodipodi.sourceforge.net/DTD/sodipodi-0.dtd"
   xmlns="http://www.w3.org/2000/svg"
   xmlns:svg="http://www.w3.org/2000/svg"><sodipodi:namedview
     id="namedview7"
     pagecolor="#ffffff"
     bordercolor="#000000"
     borderopacity="0.25"
     inkscape:showpageshadow="2"
     inkscape:pageopacity="0.0"
     inkscape:pagecheckerboard="0"
     inkscape:deskcolor="#d1d1d1"
     inkscape:document-units="mm"
     showgrid="false" /><defs
     id="defs2" /><g
     inkscape:label="Camada 1"
     inkscape:groupmode="layer"
     id="layer1"
     transform="translate(-38.893182,-37.357592)"><path
       style="fill:#000000;stroke-width:0.164427"
       d="m 99.233505,172.65117 c -2.1526,-0.14445 -5.935608,-0.6293 -6.248139,-0.80077 -0.146677,-0.0805 0.437084,-0.75972 1.85765,-2.16149 2.751126,-2.7147 3.035791,-3.2552 1.952776,-3.70771 -0.913767,-0.3818 -1.753847,-0.16871 -2.624777,0.66579 -0.40644,0.38944 -0.725118,0.84654 -0.725118,1.04008 0,0.52333 0.465454,0.9047 0.954405,0.78198 0.29403,-0.0738 -0.07725,0.36309 -1.282491,1.50907 -0.932976,0.8871 -1.777277,1.6106 -1.876219,1.60777 -0.546852,-0.0157 -2.235235,-0.47189 -2.235235,-0.60397 0,-0.0854 0.707834,-0.86541 1.572966,-1.73336 3.291024,-3.30174 3.453262,-3.63028 1.968536,-3.98646 -0.79206,-0.19001 -0.985868,-0.1819 -1.642196,0.0688 -1.493824,0.57049 -1.976274,2.39614 -0.633216,2.39614 0.208002,0 0.378182,0.0241 0.378182,0.0536 0,0.0295 -0.661275,0.74452 -1.469506,1.58893 l -1.469506,1.53529 -3.166385,-1.03023 c -3.488237,-1.13495 -5.739645,-2.06859 -9.378487,-3.8892 -3.089173,-1.54561 -7.029184,-3.88437 -7.038168,-4.17781 -0.0013,-0.0452 0.858461,-0.0946 1.910768,-0.10979 2.337512,-0.0337 5.159339,-0.39625 8.854725,-1.13771 3.605269,-0.72337 4.400325,-0.92989 4.476697,-1.16283 0.146208,-0.44594 -0.989543,-0.39223 -3.709523,0.17541 -4.862527,1.01478 -6.754631,1.24836 -10.112265,1.24836 h -3.036595 l -1.043965,-0.7758 c -2.484411,-1.84623 -6.552533,-5.38826 -6.551955,-5.70465 1.65e-4,-0.0984 0.203658,-0.19016 0.452176,-0.20397 0.248515,-0.0138 1.397825,-0.0769 2.554018,-0.1402 2.046625,-0.11206 2.099592,-0.12444 2.00459,-0.46818 -0.05367,-0.19419 -0.584647,-0.81741 -1.179947,-1.38492 -0.595299,-0.56752 -1.053409,-1.05144 -1.018023,-1.07538 0.03539,-0.0239 0.278652,-0.11455 0.54059,-0.20136 0.750205,-0.24862 0.892213,-0.62103 0.508504,-1.33354 -0.440585,-0.81811 -1.476802,-1.28365 -2.569228,-1.15427 -0.955442,0.11316 -1.457434,0.35966 -1.457434,0.71566 0,0.14577 0.257229,0.57895 0.57162,0.96262 0.547268,0.66787 0.55678,0.70147 0.223275,0.78868 -0.191591,0.0501 -1.222433,0.0472 -2.290759,-0.007 l -1.942413,-0.0977 -0.91361,-1.03419 c -1.672461,-1.89275 -4.601057,-5.95513 -6.136548,-8.51183 -1.589625,-2.64683 -3.508751,-6.50293 -4.553232,-9.14881 -1.18219,-2.99473 -3.046745,-8.95097 -2.854184,-9.11758 0.03051,-0.0264 1.387337,0.67351 3.015168,1.55535 l 2.959694,1.60335 0.38431,1.18379 c 0.21137,0.65109 0.359354,1.20673 0.328854,1.23474 -0.0305,0.028 -0.482964,-0.0276 -1.005477,-0.12359 -1.165114,-0.21405 -1.468996,-0.0354 -1.043759,0.61359 0.215929,0.32955 0.410694,0.41951 0.90824,0.41951 1.14928,0 1.660225,0.17919 1.914823,0.67153 0.131723,0.25472 0.239497,0.5038 0.239497,0.55352 0,0.24172 -1.185346,0.0447 -1.89609,-0.31506 -0.440457,-0.22299 -0.834977,-0.37128 -0.876714,-0.32955 -0.04174,0.0418 0.01008,0.26456 0.115155,0.49516 0.235536,0.51695 1.682014,1.22253 2.510834,1.22478 0.537139,0.001 0.672695,0.10526 1.436528,1.1 0.463881,0.60412 0.81002,1.1318 0.7692,1.17262 -0.102035,0.10203 -2.020286,0.0514 -2.675516,-0.0705 -0.403817,-0.0752 -0.534389,-0.041 -0.534389,0.13995 0,0.3522 0.522993,0.76499 1.120675,0.88452 0.335031,0.067 0.523599,0.20258 0.523599,0.37643 0,0.74664 1.611601,1.81964 2.738252,1.82313 0.383803,0.001 0.725489,0.19211 1.315419,0.73501 l 0.796938,0.73339 -0.604058,0.006 c -0.905864,0.01 -2.273422,0.36478 -2.273422,0.59013 0,0.10905 0.110989,0.29039 0.246641,0.40296 0.135653,0.11259 0.246642,0.30405 0.246642,0.42548 0,0.41235 0.96756,1.32552 1.595271,1.5056 0.343474,0.0985 1.011563,0.22906 1.484642,0.29004 0.799987,0.10312 1.688482,0.57835 1.688482,0.90311 0,0.0774 -0.425456,0.18838 -0.945458,0.2467 -0.520001,0.0583 -1.130438,0.13155 -1.356526,0.16274 -0.226087,0.0312 -0.655911,0.0628 -0.955162,0.0702 -0.698932,0.0174 -0.548765,0.26875 0.23668,0.39622 0.445921,0.0724 0.803531,0.31189 1.36052,0.9113 0.900022,0.96857 1.776313,1.28658 2.791784,1.01314 0.873095,-0.23508 1.065196,-0.51461 0.964938,-1.40409 -0.08223,-0.72953 -0.07719,-0.7386 0.409966,-0.7386 0.419774,0 0.462737,-0.0367 0.288525,-0.24664 -0.124742,-0.1503 -0.485035,-0.24664 -0.922422,-0.24664 -0.65777,0 -0.752193,-0.0546 -1.130295,-0.65355 -0.580821,-0.92008 -1.11481,-1.21354 -2.42701,-1.33382 -1.175957,-0.10779 -1.96403,-0.50056 -2.068319,-1.03085 -0.04369,-0.22218 0.09488,-0.27033 0.777896,-0.27033 0.749335,0 0.841207,0.0404 0.934234,0.41107 0.125372,0.49953 0.336275,0.5306 0.482132,0.0711 0.07273,-0.22913 -0.03242,-0.54253 -0.322422,-0.961 -0.265866,-0.38365 -0.389205,-0.72818 -0.322709,-0.90147 0.07626,-0.19872 -0.112843,-0.49174 -0.64866,-1.00514 -0.41596,-0.39857 -0.684281,-0.76916 -0.596266,-0.82356 0.33681,-0.20816 0.150307,-0.70133 -0.342404,-0.90542 -0.352608,-0.14605 -0.450671,-0.25987 -0.328854,-0.38169 0.312229,-0.31223 0.184855,-0.51958 -0.573358,-0.93337 -0.734336,-0.40076 -1.031713,-0.88909 -0.842193,-1.38297 0.04984,-0.12987 -0.127162,-0.51017 -0.393335,-0.84511 -0.486157,-0.61175 -0.622357,-1.05704 -0.323314,-1.05704 0.08835,0 0.284329,-0.18878 0.43551,-0.41951 0.362735,-0.5536 0.116957,-0.82459 -0.494993,-0.54576 -0.3629,0.16534 -0.484892,0.15872 -0.680562,-0.0369 -0.29433,-0.29434 -1.277003,-2.94404 -1.09183,-2.94404 0.109532,0 1.531632,0.82589 5.617496,3.26239 0.135652,0.0809 0.462424,0.65631 0.726158,1.27871 0.263735,0.62241 1.027909,2.16626 1.698167,3.43079 4.057784,7.65554 9.601804,13.72719 17.142539,18.774 9.955338,6.66284 22.627172,9.93562 34.365339,8.8756 2.57486,-0.23252 7.62376,-1.07065 8.05495,-1.33714 0.3056,-0.18887 0.17444,0.082 -1.17719,2.43157 -2.06222,3.58475 -2.17679,3.81364 -2.0605,4.11668 0.15652,0.40789 0.88248,0.64423 1.29716,0.4223 0.38969,-0.20855 0.4309,-0.29194 -0.69895,1.41419 -0.42102,0.63577 -0.92085,1.46047 -1.11073,1.83265 -0.27291,0.53496 -0.45856,0.69604 -0.88625,0.76897 -1.07263,0.1829 -4.19251,0.44084 -5.81982,0.48116 l -1.6614,0.0411 0.22611,-0.98656 c 0.68987,-3.00997 1.59505,-4.85061 2.38543,-4.85061 0.39432,0 0.38086,0.46302 -0.0286,0.98656 -0.38269,0.48925 -0.43303,1.15099 -0.0875,1.15099 0.13272,0 0.54474,-0.40189 0.91561,-0.89309 0.53176,-0.70431 0.66322,-1.00844 0.62193,-1.43874 -0.0511,-0.5325 -0.0708,-0.54565 -0.81989,-0.54565 -0.9357,0 -0.90525,-0.0431 0.93061,-1.31541 0.78291,-0.54262 1.76942,-1.24554 2.19225,-1.56206 l 0.76878,-0.5755 -0.62796,-0.0517 c -0.53725,-0.0442 -0.87812,0.10776 -2.35967,1.05224 -2.02469,1.29072 -2.68511,1.81724 -2.68511,2.14069 0,0.12899 -0.22368,0.63086 -0.49707,1.11527 -0.59845,1.0604 -1.32672,3.03738 -1.71798,4.6637 l -0.28679,1.1921 -0.76332,-0.0242 c -0.41982,-0.0133 -1.59954,-0.0803 -2.621585,-0.14889 z m 3.171975,-3.93655 c 0.29171,-0.18029 0.70741,-0.66609 0.92376,-1.07957 l 0.39337,-0.75178 -0.39326,-0.32217 c -0.21628,-0.17719 -0.36427,-0.34455 -0.32885,-0.3719 0.0354,-0.0273 0.73034,-0.52064 1.54425,-1.0962 2.35333,-1.66414 2.59777,-1.96997 1.57455,-1.96997 -1.02159,0 -6.260732,4.13337 -6.260732,4.93935 0,0.96221 1.446142,1.33256 2.546912,0.65224 z m -1.34629,-0.76659 c -0.12314,-0.3209 0.48321,-0.87874 0.95515,-0.87874 0.4352,0 0.39989,0.57654 -0.0548,0.89503 -0.47117,0.33002 -0.76952,0.32462 -0.90035,-0.0163 z m 8.2913,0.0256 c 0.53272,-0.82056 1.10189,-1.39763 1.3785,-1.39763 0.21531,0 0.178,0.44713 -0.0796,0.95363 -0.45812,0.90079 -0.48455,1.18392 -0.1105,1.18392 0.52564,0 1.32288,-1.36026 1.32288,-2.25712 0,-0.45514 -0.0822,-0.74443 -0.22737,-0.80014 -0.4183,-0.16051 -2.00636,0.41834 -2.42075,0.88238 -0.57198,0.64051 -1.10304,1.43157 -1.14052,1.69892 -0.13608,0.97054 0.57074,0.82448 1.27736,-0.26396 z m -23.336013,-2.33969 c 0.322686,-0.26116 0.655508,-0.68126 0.739598,-0.93354 0.215981,-0.64793 -0.152438,-0.95794 -1.233452,-1.03792 -1.025995,-0.0759 -1.77006,0.29852 -2.18402,1.09903 -0.692573,1.33929 1.299285,1.98822 2.677874,0.87243 z m -1.776515,-0.50791 c 0,-0.26434 0.680407,-0.68758 1.105365,-0.68758 0.743239,0 0.29239,0.58369 -0.586648,0.75949 -0.323042,0.0646 -0.518717,0.0375 -0.518717,-0.0719 z m -13.391156,-5.69949 c 0.276263,-0.21078 0.286015,-0.26571 0.07253,-0.40855 -0.135653,-0.0908 -0.411223,-0.16617 -0.612381,-0.16755 -0.245899,-0.002 -0.454789,-0.17762 -0.637514,-0.53691 -0.357411,-0.70278 -0.347556,-0.69573 -0.637046,-0.45547 -0.13784,0.11439 -0.250616,0.41553 -0.250616,0.6692 0,0.89407 1.318993,1.46847 2.065023,0.89928 z m 0.565816,-1.55586 c 0,-0.31371 -0.128556,-0.57401 -0.365441,-0.73993 -0.464676,-0.32547 -0.695326,-0.3227 -1.030411,0.0124 -0.248182,0.24818 -0.234395,0.30379 0.183445,0.73992 0.248487,0.25936 0.622933,0.47157 0.832101,0.47157 0.311316,0 0.380306,-0.0878 0.380306,-0.48396 z m -6.237842,-3.06377 c 0.17826,-0.21478 0.174669,-0.28475 -0.02097,-0.40855 -0.295687,-0.1871 -0.825732,-0.19252 -1.111463,-0.0114 -0.17583,0.11148 -0.165668,0.19003 0.05286,0.40855 0.34173,0.34173 0.801389,0.34657 1.079584,0.0114 z m 1.140592,-1.35433 c 0,-0.36538 -0.78403,-1.13406 -1.233206,-1.20906 -0.509073,-0.085 -0.520481,0.59055 -0.01845,1.09258 0.494841,0.49484 1.251656,0.56527 1.251656,0.11648 z m 2.155673,-2.12025 c 0.30267,-0.30331 -0.117822,-0.70583 -0.737066,-0.70556 -0.282841,1.2e-4 -1.143191,0.11101 -1.91189,0.24641 -0.768698,0.13541 -1.425191,0.2463 -1.458872,0.24643 -0.03368,1.2e-4 0.02723,0.10682 0.135351,0.2371 0.108128,0.13028 0.394659,0.25977 0.636737,0.28775 0.851126,0.0984 3.13982,-0.11579 3.33574,-0.31213 z m 44.809645,19.89446 c 0.2491,-0.43271 0.79799,-1.30469 1.21977,-1.93773 1.84336,-2.76671 2.20877,-3.79859 1.48276,-4.18714 -0.21127,-0.11307 -0.45975,-0.11637 -0.73992,-0.01 -0.51473,0.1957 -0.5181,0.16135 -0.0519,-0.52956 0.20347,-0.30155 0.73992,-1.26583 1.1921,-2.14285 0.51472,-0.99833 0.91993,-1.59533 1.08369,-1.5966 0.90168,-0.007 7.04787,-2.3779 9.99271,-3.85479 1.00412,-0.50359 1.87239,-0.91562 1.92948,-0.91562 0.0571,0 -0.34886,0.4839 -0.90212,1.07533 -0.55325,0.59143 -1.11741,1.2455 -1.25368,1.45347 -0.25201,0.38462 -0.98958,4.01575 -0.84505,4.16028 0.0435,0.0435 0.22748,-3.3e-4 0.40886,-0.0974 0.36554,-0.19563 0.60155,-0.83 0.77009,-2.06993 0.14641,-1.07712 0.25431,-1.25987 1.59176,-2.69623 0.81043,-0.87036 1.18708,-1.41997 1.32403,-1.93202 0.10528,-0.3936 0.24299,-0.71564 0.30603,-0.71564 0.28011,0 6.12067,-4.02673 7.38083,-5.08865 4.9184,-4.1447 8.95388,-9.03519 12.15045,-14.72485 3.08756,-5.49562 4.85426,-10.39259 6.25838,-17.3471 0.51523,-2.55191 0.4654,-2.48451 1.01828,-1.37737 0.2654,0.53147 0.70638,1.22528 0.97995,1.5418 0.32101,0.3714 0.41303,0.42971 0.25948,0.16443 -0.13085,-0.22609 -0.40516,-1.11399 -0.60956,-1.97313 -0.2044,-0.85913 -0.45165,-1.71005 -0.54943,-1.89092 -0.11646,-0.21541 -0.1838,-2.25736 -0.19522,-5.91938 -0.0182,-5.83361 -0.14052,-7.32918 -0.91459,-11.181069 -0.39957,-1.988294 -1.2451,-5.018643 -2.00721,-7.1937 -0.30894,-0.881742 -0.5275,-1.603168 -0.48567,-1.603168 0.0418,0 0.29108,0.153118 0.5539,0.340262 0.78547,0.559306 4.11834,2.35818 5.2981,2.859585 1.1639,0.494664 1.11468,0.427386 1.47613,2.017872 0.11279,0.496307 -0.18247,0.321728 -1.4391,-0.850896 -0.97109,-0.906178 -1.40488,-1.1197 -1.40488,-0.691521 0,0.445906 0.77543,1.358332 1.81401,2.13448 2.47863,1.852326 2.85085,2.454782 2.75981,4.466933 l -0.0521,1.150992 -0.70539,-0.927999 c -0.70851,-0.932104 -1.13305,-1.198591 -1.52428,-0.956797 -0.26577,0.164255 -0.0236,0.551012 1.32961,2.123256 1.05607,1.22703 1.10877,1.42049 0.84677,3.10825 l -0.11114,0.71587 -0.78013,-1.08583 c -0.81818,-1.13879 -1.27521,-1.38205 -1.27521,-0.67874 0,0.43897 0.21298,0.82232 1.23339,2.22003 l 0.65753,0.90065 10e-4,2.79898 c 6.2e-4,1.93027 0.0759,3.07964 0.24175,3.70332 0.28259,1.0629 0.26778,1.13447 0.54429,-2.63011 l 0.19922,-2.71232 0.95463,1.45041 c 0.52504,0.79772 1.45002,2.46222 2.05551,3.69888 l 1.10087,2.24848 -0.10712,1.39764 c -0.16582,2.1637 -0.7529,5.42104 -1.48175,8.22136 -0.36484,1.40175 -0.70174,2.71512 -0.74867,2.91859 -0.13032,0.56503 -0.28733,0.44593 -0.51009,-0.38697 -0.29215,-1.0923 -2.49293,-6.4238 -2.90263,-7.03175 -0.25737,-0.3819 -0.47213,-0.5149 -0.83148,-0.5149 -0.67897,0 -0.69461,0.39731 -0.0431,1.09586 0.44727,0.47957 1.28066,2.20742 1.28066,2.65514 0,0.0663 -0.20349,-0.005 -0.45218,-0.15914 -0.80412,-0.49752 -1.69372,-1.43375 -2.19881,-2.31407 -0.72113,-1.25686 -0.83564,-1.19843 -0.36933,0.18848 0.49341,1.46754 1.35304,2.52525 2.64486,3.2543 0.48914,0.27606 1.00172,0.67343 1.13907,0.88305 0.33987,0.51871 1.37012,3.9759 1.37223,4.60479 0.002,0.7229 -2.59037,6.84548 -2.61967,6.18605 -0.035,-0.78705 -3.16831,-7.92644 -3.47875,-7.92644 -0.0685,0 -0.24004,0.11541 -0.38111,0.25647 -0.23235,0.23236 -0.23217,0.31356 0.002,0.86325 0.78144,1.83443 0.91632,2.37626 1.20023,4.82119 0.16748,1.44234 0.3477,2.66562 0.40048,2.7184 0.0528,0.0528 0.22047,0.0482 0.37264,-0.0102 0.23944,-0.0919 0.26528,-0.29931 0.192,-1.54126 l -0.0847,-1.4351 0.37684,1.10118 c 0.70822,2.06951 0.81036,2.79344 0.48424,3.43206 -1.7265,3.38091 -5.49464,9.01104 -7.99285,11.94242 l -0.44845,0.52621 -0.0871,-1.01949 c -0.41931,-4.90811 -0.41949,-4.93176 -0.0435,-5.4836 1.4584,-2.14051 2.00031,-2.81682 2.11391,-2.63815 0.0686,0.10797 0.12594,1.21371 0.12732,2.45719 0.001,1.24349 0.0605,2.26088 0.1315,2.26088 0.0709,0 0.26351,-0.22775 0.42794,-0.50612 0.26144,-0.44257 0.29349,-0.83998 0.25532,-3.16522 -0.0428,-2.6073 -0.0348,-2.67775 0.41106,-3.6151 0.50556,-1.06286 0.45622,-1.34427 -0.13782,-0.78619 -0.51618,0.48492 -0.64005,0.26779 -0.61103,-1.07105 0.0257,-1.18452 -0.14499,-1.31958 -0.65261,-0.51644 -0.28987,0.45865 -0.32638,0.71965 -0.25753,1.84135 0.0893,1.4552 -0.0707,1.92352 -1.17571,3.44034 -0.53863,0.73939 -0.6003,0.7781 -0.80148,0.50296 -0.36917,-0.50487 -0.25122,-1.13366 0.35594,-1.89746 0.31565,-0.39707 0.57462,-0.88844 0.5755,-1.09192 6.2e-4,-0.20347 -0.0283,-0.36996 -0.0648,-0.36996 -0.0365,0 -0.52137,0.46246 -1.07747,1.02767 -1.1167,1.13502 -1.05279,0.86616 -0.75237,3.16523 0.0704,0.53871 0.0404,0.49408 -0.16594,-0.24664 -0.39782,-1.42831 -0.37127,-1.38305 -0.66705,-1.13757 -0.17833,0.148 -0.23987,0.4146 -0.19772,0.85655 0.0534,0.55975 -0.0164,0.71921 -0.54601,1.24887 -0.76198,0.76199 -0.99674,1.87595 -0.57967,2.75057 0.36341,0.76206 0.9094,0.7503 1.55546,-0.0335 0.3015,-0.36576 0.52919,-0.52107 0.59882,-0.40841 0.0618,0.1 0.15218,1.38295 0.20089,2.85106 l 0.0885,2.66928 -2.42495,2.42531 c -1.33372,1.33391 -2.47006,2.42541 -2.5252,2.42553 -0.0551,1.2e-4 -0.0755,-0.9364 -0.0452,-2.08118 0.0361,-1.36518 -0.0105,-2.20396 -0.13555,-2.43757 -0.12762,-0.23846 -0.14247,-0.54202 -0.0449,-0.91849 0.12303,-0.47479 0.23457,-0.57676 0.71663,-0.65511 0.76185,-0.12384 0.85681,-0.19521 1.44875,-1.08888 0.55736,-0.84146 0.67659,-1.87402 0.27717,-2.40042 -0.19952,-0.26295 -0.23897,-0.21991 -0.40584,0.44277 -0.10165,0.40373 -0.18483,1.07124 -0.18483,1.48337 0,0.69479 -0.0307,0.74933 -0.42188,0.74933 -0.60805,0 -1.05797,-0.2884 -1.05797,-0.67816 0,-0.18576 0.33019,-0.65864 0.73375,-1.05086 0.70961,-0.68965 1.082,-1.45221 0.82555,-1.69051 -0.0685,-0.0636 -0.15416,-0.0332 -0.19044,0.0676 -0.0363,0.10077 -0.30115,0.54472 -0.5886,0.98656 -0.46264,0.71114 -0.52944,0.75978 -0.58193,0.42377 -0.0855,-0.54744 -0.54841,-0.39531 -0.90625,0.29785 -0.20425,0.39565 -0.27606,0.81691 -0.23021,1.3505 0.0367,0.42652 0.004,0.73662 -0.0731,0.68911 -0.0769,-0.0475 -0.13976,-0.18863 -0.13976,-0.31361 0,-0.48474 -0.38039,-0.42347 -0.84114,0.1355 -0.26508,0.32159 -0.62903,0.63139 -0.80878,0.68844 -0.44598,0.14154 -0.81649,0.91506 -0.81649,1.70459 0,0.50603 0.0953,0.72894 0.42156,0.98554 0.44725,0.35181 0.76404,0.31701 1.30493,-0.14334 0.79792,-0.67913 0.78676,-0.70936 0.71188,1.92638 l -0.07,2.46498 -0.56757,0.49722 c -1.30373,1.14216 -2.48444,2.04626 -2.5659,1.9648 -0.0479,-0.048 -0.007,-1.10605 0.0912,-2.35135 0.11997,-1.52252 0.12397,-2.29782 0.0122,-2.36688 -0.0914,-0.0565 -0.21286,-0.70799 -0.26991,-1.44777 -0.0571,-0.73978 -0.16137,-1.34505 -0.23184,-1.34505 -0.0705,0 -0.28148,0.19495 -0.46891,0.43324 -0.26325,0.33466 -0.34079,0.67007 -0.34079,1.47406 0,0.86075 -0.055,1.07027 -0.31805,1.21103 -0.74526,0.39885 -0.8817,-0.0124 -0.33966,-1.02372 0.34679,-0.64704 0.42443,-1.10805 0.1866,-1.10805 -0.38272,0 -1.01298,0.75005 -1.26315,1.50324 -0.25805,0.7769 -0.25921,0.88382 -0.0152,1.39555 0.33403,0.70047 1.02354,0.76303 1.60886,0.14596 0.21297,-0.22453 0.44858,-0.40951 0.52358,-0.41107 0.075,-0.002 0.0957,0.42261 0.046,0.94262 -0.0497,0.52 -0.13836,1.59329 -0.19699,2.38507 l -0.1066,1.43963 -1.74807,1.21242 c -0.96144,0.66683 -1.77054,1.15399 -1.798,1.08258 -0.0275,-0.0714 0.10535,-1.28506 0.2951,-2.69696 0.18976,-1.41191 0.30269,-2.63561 0.25095,-2.71932 -0.0517,-0.0837 -0.0151,-0.64634 0.0814,-1.2503 0.0965,-0.60396 0.13595,-1.13757 0.0877,-1.18581 -0.1259,-0.1259 -0.74423,0.46759 -0.9911,0.95127 -0.1155,0.2263 -0.26054,0.67043 -0.3223,0.98695 -0.19569,1.00286 -0.44368,1.47985 -0.7694,1.47985 -0.42667,0 -0.39145,-0.42304 0.1143,-1.3731 0.23276,-0.43725 0.38762,-0.83058 0.34413,-0.87407 -0.20035,-0.20035 -1.12636,0.51071 -1.42343,1.09301 -0.39618,0.77657 -0.42181,1.44387 -0.0745,1.93971 0.34205,0.48834 0.85942,0.46108 1.4187,-0.0747 0.2527,-0.2421 0.4951,-0.40454 0.53866,-0.36099 0.0905,0.0905 -0.66335,4.66536 -0.80701,4.89781 -0.0821,0.13285 -3.0037,1.82276 -3.15127,1.82276 -0.0306,0 -0.0221,-0.20348 0.0187,-0.45218 0.48897,-2.97923 1.10698,-7.45672 1.03865,-7.52505 -0.34243,-0.34243 -1.01667,0.61152 -1.28802,1.8224 -0.20339,0.90754 -0.55593,1.38643 -1.02062,1.38643 -0.38487,0 -0.28086,-0.44553 0.30642,-1.31248 0.38653,-0.57062 0.49874,-0.99005 0.26453,-0.98888 -0.39312,0.002 -1.19588,0.7255 -1.49851,1.35064 -0.4391,0.90707 -0.44613,1.51361 -0.0224,1.93729 0.41797,0.41796 0.48701,0.41355 1.21026,-0.0773 0.32915,-0.22336 0.59845,-0.34404 0.59845,-0.26818 0,0.0759 -0.10573,0.75807 -0.23496,1.516 -0.12922,0.75793 -0.28698,1.81344 -0.35056,2.34558 l -0.1156,0.96751 -2.07475,0.98588 c -3.20668,1.52376 -7.45339,3.08362 -10.58834,3.8892 -0.70333,0.18073 -1.35076,0.37309 -1.43874,0.42747 -0.4193,0.25914 0.0388,-0.61982 1.50956,-2.89623 0.61916,-0.95835 1.12576,-1.83638 1.12576,-1.95117 0,-0.1593 -0.2628,-0.18177 -1.10989,-0.0949 -0.61044,0.0626 -1.29487,0.1499 -1.52096,0.19397 -0.38354,0.0748 -0.38904,0.067 -0.0822,-0.11604 0.62563,-0.37321 1.56206,-1.37234 1.56206,-1.66667 0,-0.54984 -0.67688,-0.32329 -1.50333,0.50317 -0.60269,0.60269 -0.79865,0.9205 -0.79865,1.29528 0,0.68718 0.348,0.92491 1.21144,0.82759 l 0.71551,-0.0807 -0.78102,1.17937 c -0.42955,0.64865 -1.00305,1.61879 -1.27444,2.15586 l -0.49344,0.9765 -1.62104,0.2974 c -0.89158,0.16356 -1.79216,0.33262 -2.0013,0.37567 l -0.38024,0.0783 z m 15.59153,-8.22274 c 0.0617,-0.25109 0.40321,-1.14026 0.75884,-1.97596 0.35562,-0.83568 0.64658,-1.55971 0.64658,-1.60894 0,-0.0492 -0.14657,-0.0111 -0.32571,0.0848 -0.48243,0.25819 -1.07278,1.20697 -1.66473,2.67548 -0.42245,1.04799 -0.48226,1.33137 -0.30423,1.44141 0.32836,0.20293 0.76157,-0.0975 0.88925,-0.61679 z m 20.90587,-22.3392 c 0.85996,-1.50348 0.98233,-1.94039 0.7294,-2.60421 l -0.18309,-0.48049 -0.42002,0.61811 c -0.90628,1.33371 -1.29302,2.52703 -1.22752,3.78763 0.0235,0.45266 0.22485,0.21114 1.10123,-1.32104 z m 2.14167,-2.96665 c 0.2385,-0.95028 -0.36785,-1.61598 -0.77647,-0.85247 -0.21995,0.41098 -0.25659,1.46855 -0.0618,1.78373 0.15981,0.25858 0.68649,-0.32652 0.83827,-0.93126 z m 5.50662,-1.88309 c 0.64289,-0.45778 1.02363,-1.22937 0.91893,-1.86229 -0.0463,-0.27992 -0.36615,-1.23037 -0.71076,-2.11211 -0.6656,-1.70301 -1.0314,-2.01708 -1.40199,-1.20373 -0.15117,0.33178 -0.12273,0.47476 0.16796,0.8443 0.33877,0.43068 0.49438,1.16693 0.20942,0.99081 -0.0773,-0.0478 -0.31442,0.0982 -0.52694,0.32446 -0.29847,0.31771 -0.40117,0.64398 -0.45126,1.43367 -0.0581,0.91577 -0.0211,1.06951 0.35465,1.47454 0.5024,0.54152 0.80221,0.56449 1.43999,0.11035 z m -0.77273,-1.21987 c -0.0567,-0.22589 0.004,-0.67932 0.135,-1.00764 l 0.2381,-0.59693 0.27463,0.68639 c 0.2041,0.51009 0.23048,0.7689 0.10272,1.00763 -0.2394,0.44732 -0.62734,0.40108 -0.75045,-0.0894 z m 4.81885,-6.97174 c 0.5388,-0.8023 0.47356,-1.45644 -0.29198,-2.92757 -0.77751,-1.49415 -1.01822,-1.72253 -1.40639,-1.33436 -0.36,0.36001 -0.23181,0.81035 0.59465,2.08905 0.69979,1.08272 0.75499,1.66281 0.15822,1.66281 -0.42031,0 -0.68787,-0.53324 -0.50949,-1.01543 0.15707,-0.42458 -0.2331,-1.45098 -0.55156,-1.45098 -0.91815,0 -0.62582,2.85351 0.35191,3.43521 0.5634,0.33519 1.24914,0.14507 1.65464,-0.45873 z m -66.655964,39.8458 c -0.136261,-0.35509 0.112378,-0.55894 0.82222,-0.67414 0.721631,-0.1171 0.785541,0.10621 0.169167,0.59105 -0.516699,0.40644 -0.856382,0.43491 -0.991387,0.0831 z m 18.853934,-0.30318 c 0,-0.31744 0.93892,-1.0834 1.32804,-1.0834 0.41387,0 0.39953,0.1064 -0.1032,0.76552 -0.43601,0.57163 -1.22484,0.77636 -1.22484,0.31788 z m -22.878316,-0.27673 c -0.314346,-0.19613 0.0019,-0.66256 0.579316,-0.85511 0.563421,-0.18781 0.698159,-0.063 0.470786,0.436 -0.196406,0.43107 -0.705367,0.6342 -1.050102,0.41911 z m 9.271946,-9.97139 -0.86324,-0.0604 0.0025,-0.85465 c 0.0062,-2.14045 0.339055,-13.02903 0.491393,-16.06419 0.356807,-7.1091 1.046357,-17.55397 1.405747,-21.29335 0.13038,-1.35653 0.23727,-2.58953 0.23754,-2.74001 6.2e-4,-0.32621 -2.102775,-1.55664 -2.301815,-1.34653 -0.1469,0.15508 -0.813986,8.63407 -1.31114,16.66524 -0.381513,6.16311 -0.608631,11.4989 -0.825159,19.38595 -0.08789,3.20138 -0.190763,5.85165 -0.228604,5.88949 -0.133365,0.13337 -3.82572,-0.6093 -5.856148,-1.1779 -8.21495,-2.3005 -15.603183,-6.60312 -21.457757,-12.49618 -2.108508,-2.12236 -4.562667,-5.0727 -6.065225,-7.29148 l -0.922941,-1.36288 0.0024,-1.43239 c 0.0068,-4.05068 0.612221,-10.50759 1.329252,-14.17551 2.408292,-12.31945 6.658164,-21.560408 12.591746,-27.379612 1.559414,-1.529351 2.290558,-2.030991 3.181998,-2.183171 l 0.715442,-0.122135 0.02497,-1.476966 c 0.0408,-2.413068 0.536815,-4.136639 2.069767,-7.192095 1.401357,-2.793165 4.514524,-8.024647 7.460142,-12.536314 0.649486,-0.994786 1.685811,-2.585622 2.302949,-3.53519 0.617139,-0.949568 1.677515,-2.5774 2.356395,-3.617404 0.678875,-1.040003 2.043131,-3.222777 3.031678,-4.850609 0.988547,-1.627832 2.081114,-3.403647 2.427931,-3.946258 0.522109,-0.816859 0.663049,-1.226934 0.819399,-2.383927 0.10385,-0.768548 0.20667,-1.41521 0.22849,-1.437026 0.0218,-0.02182 0.26451,-0.08463 0.53931,-0.139596 0.4741,-0.09482 0.55169,-0.02784 1.51763,1.310199 0.5599,0.775572 1.48133,1.915019 2.04763,2.532108 2.18973,2.38611 5.34975,7.257049 11.1054,17.118142 0.91784,1.572527 1.64821,2.876871 1.62306,2.89854 -0.0252,0.02167 -0.60891,-0.636008 -1.29722,-1.461508 -6.46511,-7.753702 -7.19813,-8.564007 -8.86081,-9.795094 -1.32367,-0.980074 -2.23944,-1.449064 -3.09736,-1.586251 -0.57258,-0.09156 -0.71975,-0.04709 -1.0989,0.33206 -0.40067,0.40067 -0.41769,0.468496 -0.20074,0.800178 0.13037,0.199321 0.5626,0.540603 0.96049,0.758404 1.99089,1.089767 3.74428,2.904979 8.353,8.647506 2.9595,3.687579 4.90494,6.297809 5.82114,7.810321 0.88516,1.461258 1.59443,3.463733 1.59443,4.501529 0,2.715379 -1.50302,5.428586 -4.86231,8.777313 l -1.69205,1.686726 1.26294,-0.684843 c 2.21761,-1.202518 4.3147,-2.637011 5.59115,-3.824562 l 0.54637,-0.508321 -0.10896,0.493282 c -0.19539,0.884506 -0.44711,1.632955 -0.7558,2.247286 -0.48749,0.970128 -1.95364,2.587186 -3.61558,3.987707 -1.61504,1.360999 -2.15088,1.846418 -1.87409,1.697743 0.0904,-0.04857 1.20033,-0.580952 2.46642,-1.183059 2.62748,-1.249537 4.99621,-2.701325 7.46733,-4.576706 l 1.71237,-1.299552 0.83049,0.385428 c 1.06016,0.492018 4.28069,3.638509 5.68841,5.557647 1.10889,1.511741 2.87692,4.424154 2.75797,4.543107 -0.0406,0.04064 -0.58437,-0.0312 -1.20829,-0.159654 -1.81867,-0.374428 -3.12644,-0.474118 -4.60449,-0.350997 -1.51971,0.126589 -1.67241,0.311429 -0.39706,0.48061 1.08807,0.144338 3.96132,1.144134 5.10036,1.774764 0.49739,0.27538 1.40868,0.83364 2.02508,1.24057 1.24367,0.82105 1.29152,0.9006 2.6646,4.42995 2.90642,7.47069 4.40197,15.31682 4.93851,25.90915 l 0.10624,2.09728 -0.54334,0.86241 c -5.02705,7.97909 -13.5925,14.91785 -22.81528,18.48237 -3.68217,1.42313 -8.78051,2.72005 -11.64449,2.96215 l -1.20413,0.10179 -6e-5,-12.64393 c -1.2e-4,-15.32371 -0.33105,-26.9941 -0.9238,-32.57611 l -0.10863,-1.02301 -0.31901,0.64476 c -0.17545,0.35462 -0.61235,0.97803 -0.9709,1.38535 l -0.65189,0.74059 0.24651,7.0369 c 0.23313,6.65464 0.32101,16.2172 0.27963,30.42669 l -0.0183,6.28935 -2.17867,-0.0304 c -1.19826,-0.0167 -2.56712,-0.0576 -3.0419,-0.0908 z m 24.04252,-24.29626 c 1.24661,-9.57269 0.88492,-17.48802 -1.16356,-25.46333 -0.13613,-0.53001 -0.21788,-0.99328 -0.18165,-1.02951 0.0926,-0.0926 1.92664,2.00721 2.53073,2.89751 0.27613,0.40695 0.80636,1.33186 1.17828,2.05534 0.37192,0.72348 0.67777,1.19268 0.67966,1.04267 0.002,-0.15002 -0.25064,-1.28147 -0.56117,-2.51434 -0.93586,-3.71545 -2.02413,-5.47278 -4.41098,-7.12281 -1.05654,-0.73038 -3.97271,-2.17552 -4.39003,-2.17552 -0.0786,0 0.0753,0.45055 0.34206,1.00123 1.4482,2.98963 2.71879,8.05995 3.41629,13.63281 0.60384,4.82448 1.33696,13.53576 1.57751,18.74473 0.0522,1.13044 0.1412,2.38831 0.19779,2.79527 l 0.10287,0.73992 0.13768,-0.73992 c 0.0757,-0.40696 0.32075,-2.14578 0.54452,-3.86405 z m 10.04426,-4.13942 c 0.36233,-2.91523 0.49729,-9.064 0.24669,-11.23927 -0.45202,-3.92362 -1.38213,-7.34969 -2.77345,-10.21604 -0.8311,-1.71217 -0.81811,-1.72294 0.7125,-0.59038 1.44217,1.06711 3.28642,2.99258 4.20568,4.39087 0.44315,0.67407 0.80572,1.19175 0.80572,1.15039 0,-0.0413 -0.25745,-0.80502 -0.57212,-1.69704 -1.67348,-4.74396 -3.89937,-6.83201 -9.0376,-8.47793 -1.60476,-0.51405 -3.95475,-0.97128 -4.12369,-0.80233 -0.0492,0.0492 0.45982,0.8208 1.13125,1.71458 1.39482,1.85672 3.28655,5.02322 4.31211,7.21783 2.24826,4.81116 3.69692,11.42304 4.33882,19.80302 0.0932,1.21635 0.17805,2.28924 0.18862,2.3842 0.03,0.26981 0.27829,-1.32727 0.56547,-3.6379 z m -48.534969,-3.75309 c 0.325153,-9.98053 1.227846,-16.44666 2.733173,-19.57808 1.041806,-2.1672 2.404247,-3.29209 4.213442,-3.47881 0.485856,-0.0502 0.883371,-0.14622 0.883371,-0.2135 0,-0.18697 -1.618711,-0.79666 -2.601703,-0.97994 -1.550631,-0.2891 -2.998963,0.24121 -3.947924,1.44556 -1.963614,2.49208 -2.888145,6.62723 -2.892915,12.93912 -0.003,3.91792 0.127063,5.51559 0.822961,10.11229 0.405944,2.68141 0.517092,3.23265 0.626419,3.10655 0.03082,-0.0356 0.10425,-1.54449 0.163176,-3.35319 z m 30.678919,-2.63084 c 0.36478,-2.71305 0.70154,-5.2288 0.74836,-5.59054 0.78502,-6.06492 0.72302,-12.53076 -0.13995,-14.59614 -0.31408,-0.75168 -1.41903,-1.66723 -2.94137,-2.43716 -0.69886,-0.353455 -1.29869,-0.642645 -1.33296,-0.642645 -0.0342,0 0.25781,0.65084 0.64904,1.446315 0.80155,1.62975 1.42055,3.77486 1.78947,6.20128 0.38073,2.50412 0.62615,9.7557 0.5286,15.61889 -0.0482,2.89392 -0.0598,5.18768 -0.026,5.09725 0.0339,-0.0904 0.36001,-2.3842 0.72478,-5.09725 z m -20.107004,-5.0575 0.106015,-5.20042 0.4737,0.24496 c 0.26054,0.13473 1.155092,0.49009 1.987901,0.7897 0.832804,0.2996 2.054818,0.79319 2.715568,1.09686 1.01595,0.46691 1.22494,0.51488 1.35401,0.31079 0.3331,-0.52667 0.13315,-0.91715 -1.03443,-2.02014 l -1.1921,-1.12615 0.96367,0.60594 c 1.61553,1.01581 2.40709,1.06863 2.40709,0.16064 0,-0.27535 -0.26984,-0.54744 -1.04166,-1.0503 -0.57292,-0.37326 -1.22035,-0.87673 -1.43874,-1.1188 l -0.39707,-0.44013 0.57549,0.36612 c 0.81351,0.51754 2.42506,1.33958 2.62615,1.33958 0.093,0 0.3188,-0.14968 0.50174,-0.33263 0.45971,-0.45971 0.22746,-0.83142 -0.95151,-1.52289 -2.58009,-1.5132 -2.92159,-1.94922 -0.66736,-0.85207 0.82996,0.40395 1.67827,0.73446 1.88513,0.73446 0.4291,0 0.78043,-0.52622 0.64217,-0.96185 -0.0835,-0.26317 -2.9718,-2.36457 -4.47983,-3.25936 -1.416245,-0.84032 -5.895646,-1.52081 -8.024501,-1.21904 -0.962483,0.13643 -1.223731,0.24415 -1.595096,0.6577 -0.892656,0.99405 -1.014437,2.97042 -0.266494,4.32474 0.41941,0.75944 1.640078,1.77397 2.718699,2.25959 0.777077,0.34985 0.802806,0.41511 0.942733,2.39111 0.278985,3.93966 0.831244,9.27346 0.948072,9.15663 0.07405,-0.074 0.182342,-2.47482 0.240653,-5.33504 z m 14.271764,-0.75061 c 0.13898,-1.92836 0.29951,-4.81407 0.35673,-6.41267 0.0572,-1.5986 0.13325,-2.93976 0.16896,-2.98034 0.0357,-0.0406 0.54349,0.1622 1.12841,0.45064 l 1.0635,0.52444 v -1.1313 c 0,-1.41533 -0.3932,-3.52507 -0.91571,-4.91324 -0.76445,-2.030936 -2.67931,-4.762871 -3.95226,-5.638684 -1.73705,-1.195123 -5.11743,-1.771665 -7.64718,-1.304267 -0.99275,0.183422 -1.790037,0.86981 -1.790037,1.541057 0,0.379903 0.02641,0.385354 2.425297,0.499979 3.34486,0.159829 4.06173,0.328875 2.02608,0.477771 -3.25799,0.238303 -4.615802,0.632241 -4.615802,1.339167 0,0.48416 0.140952,0.527309 2.137552,0.654338 2.42985,0.154594 3.61752,0.28575 3.61622,0.399348 -6.3e-4,0.05729 -0.5371,0.125628 -1.1921,0.151858 -2.65398,0.106293 -4.06839,0.517753 -4.06839,1.183523 0,0.56814 0.523491,0.67309 2.91583,0.58455 2.38706,-0.0883 2.38122,-0.0611 -0.12057,0.56189 -0.93555,0.23298 -1.53156,0.48113 -1.80272,0.75055 -0.673521,0.66922 -0.29491,0.825 1.88523,0.7757 1.4059,-0.0318 1.90585,0.0115 2.00507,0.1735 0.33867,0.55299 1.46078,1.11943 3.45204,1.74258 1.99284,0.62365 2.16321,0.70804 2.09933,1.03976 -0.102,0.52963 0.22335,11.97304 0.3643,12.81336 0.15418,0.91922 0.16067,0.87298 0.46022,-3.28351 z m -5.75599,-25.010744 -0.11759,-2.126265 0.63708,-0.107983 c 1.71652,-0.290944 2.90825,-0.664044 4.3164,-1.351355 2.55924,-1.249147 4.40441,-3.346356 4.95182,-5.628196 0.35502,-1.479918 0.0739,-3.578358 -0.73867,-5.513749 -0.61707,-1.469742 -2.47731,-4.013104 -3.513,-4.803063 l -0.568,-0.433235 0.71002,0.89166 c 0.84759,1.064426 1.86703,3.162969 2.23582,4.602513 0.18633,0.727325 0.24696,1.512713 0.20153,2.61095 -0.0558,1.348137 -0.13188,1.693012 -0.53712,2.433744 -0.58634,1.071747 -2.06107,2.498293 -3.15656,3.053418 -0.94843,0.480611 -2.85667,1.150819 -2.96584,1.041659 -0.0403,-0.04035 0.34419,-0.654479 0.85452,-1.364739 1.21287,-1.688043 3.20349,-4.897445 3.20349,-5.164886 0,-0.385925 -3.49756,-6.92007 -5.87652,-10.978511 -0.80294,-1.369802 -0.92054,-1.501368 -1.10231,-1.233205 -0.43926,0.648041 -3.1588,5.501477 -4.44384,7.930738 -0.745967,1.410172 -1.590193,2.958179 -1.876063,3.440014 l -0.519763,0.876064 0.812718,1.343706 c 0.44699,0.739039 1.443324,2.229491 2.214075,3.312119 0.770753,1.082627 1.381403,1.988369 1.357013,2.01276 -0.0244,0.02439 -0.44689,-0.0605 -0.938896,-0.188653 -4.60905,-1.200506 -6.965725,-3.840727 -6.670408,-7.47297 0.172753,-2.124703 0.894055,-3.981224 2.371155,-6.102983 l 0.744053,-1.068777 -1.021603,0.986564 c -3.464852,3.346032 -4.773779,8.049237 -3.154061,11.333118 1.169951,2.371999 4.313534,4.540756 7.423031,5.121147 0.765199,0.142824 1.548129,0.290147 1.739849,0.327383 0.39899,0.07749 0.49609,0.49642 0.66427,2.865741 l 0.10517,1.481536 h 1.38791 1.38792 z m -3.64065,-6.71171 c -1.186739,-1.59724 -2.587127,-3.576258 -2.908787,-4.110686 -0.09644,-0.160231 0.347482,-0.205534 2.014037,-0.205534 h 2.13774 l 0.56594,1.004255 0.56594,1.004257 0.53527,-1.004257 0.53526,-1.004255 h 2.11671 2.11672 l -0.44089,0.698816 c -1.26715,2.008489 -3.02636,4.433378 -3.69794,5.097251 -0.21091,0.208482 -0.55769,0.287748 -1.25889,0.287748 h -0.96779 z m -2.664473,-6.659312 c 0.74734,-1.488385 3.048863,-5.714667 4.214903,-7.739817 0.40726,-0.707324 0.79977,-1.225271 0.87225,-1.150993 0.37687,0.386236 5.16053,9.099755 5.46774,9.959589 0.094,0.263202 -0.0567,0.287748 -1.76685,0.287748 h -1.86966 l 0.23918,-0.78103 c 0.39198,-1.279974 0.1606,-2.226875 -1.26842,-5.190846 l -0.69914,-1.450122 -0.49396,0.792412 c -0.27168,0.435826 -0.79455,1.418231 -1.16194,2.183121 -0.56816,1.182925 -0.6686,1.551431 -0.67217,2.466411 -0.002,0.591637 0.0527,1.279182 0.12225,1.527879 l 0.12644,0.452175 H 99.613222 97.71734 Z m -41.341541,74.558936 -0.77806,-0.78994 2.299137,0.0272 c 2.426211,0.0286 2.423876,0.028 3.517332,0.94838 l 0.466157,0.39237 -0.630585,0.10419 c -0.34682,0.0573 -1.410284,0.105 -2.363251,0.10599 l -1.732669,0.002 z m 87.197044,-1.31104 c 0,-0.47408 0.39887,-1.18757 0.66389,-1.18757 0.30286,0 0.36279,0.81863 0.0904,1.2344 -0.36523,0.55741 -0.75425,0.53326 -0.75425,-0.0469 z M 60.424645,149.7527 c -0.196633,-0.20931 -0.357516,-0.41955 -0.357516,-0.46721 0,-0.15931 1.493189,0.13763 1.692044,0.33649 0.151878,0.15188 0.140791,0.23111 -0.04914,0.35118 -0.415592,0.26275 -0.911308,0.17773 -1.285383,-0.22046 z m 89.789825,-4.67026 c -0.32353,-0.11622 -0.24714,-1.1088 0.11023,-1.43222 0.30112,-0.2725 0.32419,-0.27003 0.49727,0.0534 0.31647,0.59134 -0.10935,1.55784 -0.6075,1.37888 z m -94.504668,-0.57622 c -0.36174,-0.096 -0.788641,-0.26454 -0.948667,-0.37451 -0.241809,-0.16616 -0.04739,-0.21513 1.150949,-0.28989 1.472637,-0.0919 1.738772,-0.005 1.645953,0.53648 -0.05271,0.30757 -0.939954,0.36898 -1.848235,0.12792 z m -5.062711,-8.6196 c -0.552974,-0.28973 -0.588719,-0.71625 -0.06003,-0.71625 0.340012,0 0.929835,0.44033 0.929835,0.69417 0,0.22456 -0.461033,0.23626 -0.869811,0.0221 z m 1.93859,-7.42365 c -1.823826,-1.16621 -4.044596,-2.48349 -4.350528,-2.5806 -0.510313,-0.16196 -0.747462,-0.63257 -1.324905,-2.62921 -0.500897,-1.73196 -0.993852,-2.93082 -1.277098,-3.10588 -0.07342,-0.0454 0.03412,0.81901 0.238983,1.92087 0.556367,2.99243 0.589294,2.88172 -0.64458,2.16734 -0.565219,-0.32725 -1.836754,-0.9988 -2.825634,-1.49234 -0.98888,-0.49353 -1.8261,-0.92547 -1.86049,-0.95986 -0.112851,-0.11285 -0.500032,-1.95547 -0.763942,-3.63564 -0.580449,-3.69544 -0.784165,-6.23499 -0.850385,-10.60109 -0.06575,-4.33542 -0.05678,-4.50488 0.217903,-4.11224 0.633114,0.905 2.437333,3.09324 3.21071,3.89408 0.776992,0.8046 0.827717,0.91138 0.937382,1.97313 0.06377,0.61738 0.175262,1.27049 0.247766,1.45136 0.183651,0.45814 -0.71126,-0.77831 -1.455131,-2.01047 -0.731139,-1.21108 -0.818882,-1.28125 -1.166939,-0.93319 -0.24464,0.24464 -0.224402,0.33922 0.255397,1.19361 0.286599,0.51035 0.963224,1.57535 1.503612,2.36666 0.774085,1.13352 1.065917,1.43874 1.375623,1.43874 0.451271,0 0.528446,-0.43362 0.183935,-1.03346 -0.140505,-0.24464 -0.180985,-0.73804 -0.123321,-1.50316 l 0.08584,-1.13899 0.561468,0.64571 c 1.205742,1.38663 4.38892,4.63383 4.706085,4.80074 0.276266,0.14538 0.414845,0.60203 0.793436,2.61452 0.728583,3.87298 1.576852,7.1788 2.666758,10.39274 0.226213,0.66706 0.389802,1.23182 0.363529,1.25501 -0.02627,0.0232 -0.343737,-0.14708 -0.705477,-0.37838 z m -7.905965,-13.61698 c 0.431092,-0.16543 0.302975,-0.79321 -0.244474,-1.19796 -0.920032,-0.68021 -1.393467,0.10377 -0.540205,0.89454 0.492542,0.45648 0.439379,0.43592 0.784679,0.30342 z m 4.53281,-1.50336 c -0.003,-0.15687 -2.112351,-2.51647 -3.799247,-4.25007 l -1.295611,-1.33148 v -1.35576 -1.35576 l 1.039784,1.22351 c 0.571881,0.67293 1.205854,1.45673 1.40883,1.74178 0.505531,0.70995 0.738487,0.66499 0.632911,-0.12214 -0.05507,-0.41055 -0.343172,-0.97917 -0.802681,-1.58423 -1.86789,-2.45955 -1.825983,-2.37932 -1.242951,-2.37932 1.064811,0 1.055086,-1.35703 -0.01797,-2.50752 -0.793081,-0.85032 -2.168917,-0.46631 -2.168917,0.60535 0,0.19679 -0.331437,-0.19365 -0.833659,-0.98204 -1.099811,-1.726504 -1.611129,-2.728317 -2.047197,-4.011029 l -0.359697,-1.058061 0.376605,-1.737206 c 0.207133,-0.955463 0.476435,-2.06801 0.598448,-2.472327 l 0.221843,-0.735122 0.472132,1.310618 c 0.66204,1.837795 1.815436,4.325055 2.857096,6.161227 1.028783,1.81347 1.226628,2.05384 1.579164,1.91856 0.495824,-0.19026 0.223291,-1.162537 -0.653009,-2.329628 -1.262447,-1.681376 -3.538188,-7.518298 -3.518087,-9.023348 0.0085,-0.637566 0.02756,-0.609435 0.320349,0.473121 0.440665,1.629335 0.879027,2.759604 1.098676,2.83282 0.398167,0.132723 0.370483,-0.646417 -0.09837,-2.768558 -0.830693,-3.75989 -0.864116,-3.309612 0.475032,-6.399751 4.995562,-11.527465 11.335768,-19.536822 21.626168,-27.319565 7.131845,-5.393893 16.299629,-9.781144 24.992972,-11.960407 2.277861,-0.571019 6.853464,-1.405419 8.591334,-1.566704 1.015904,-0.09428 1.192094,-0.07287 1.192094,0.144888 0,0.140538 -0.192944,1.236405 -0.428763,2.435261 -0.235818,1.198857 -0.557498,3.039232 -0.714844,4.089723 -0.272609,1.820024 -0.324712,1.967169 -1.106121,3.124121 -0.451017,0.667776 -0.939036,1.408582 -1.084488,1.64624 -0.20318,0.331975 -0.447605,0.458922 -1.05485,0.547847 -0.434723,0.06366 -2.048264,0.437964 -3.585664,0.831786 -7.609899,1.949364 -14.556655,5.122002 -20.615804,9.415394 -1.818563,1.2886 -5.884611,4.896075 -7.310217,6.485766 -4.227581,4.714166 -6.559919,8.101585 -9.201439,13.363889 -2.010635,4.005488 -3.110428,7.193508 -4.130997,11.974727 -0.956677,4.481888 -1.161537,6.623428 -1.162749,12.155018 -6.84e-4,2.69046 -0.05656,4.89173 -0.124393,4.89172 -0.06783,-2e-5 -0.124397,-0.0555 -0.125713,-0.12334 z M 46.581314,97.532108 c -0.0015,-0.325114 -0.248912,-1.198 -0.549755,-1.939745 l -0.546989,-1.34863 0.576499,0.03321 c 0.493435,0.02843 0.622815,-0.04483 0.897958,-0.508396 0.287774,-0.484849 0.299835,-0.618846 0.115083,-1.278713 -0.228323,-0.815489 -0.955853,-1.550446 -1.534779,-1.550446 -0.198995,0 -0.608901,0.225684 -0.910904,0.501521 -0.521955,0.476733 -0.545663,0.547839 -0.479698,1.43874 0.04954,0.669108 0.316649,1.493353 0.933711,2.881258 0.475372,1.069221 0.851538,2.105114 0.835922,2.301985 -0.04875,0.614555 -0.0018,0.664436 0.336863,0.357945 0.214145,-0.193799 0.327889,-0.503801 0.326089,-0.888729 z m -1.271547,-4.232163 c -0.295658,-0.123678 -0.258301,-1.035209 0.04723,-1.152454 0.347413,-0.133314 0.923431,0.425251 0.864357,0.838169 -0.04786,0.334508 -0.494842,0.488613 -0.911587,0.314285 z m 2.580424,-2.595982 c 0.188113,-0.226662 0.108432,-0.769213 -0.237093,-1.614383 -0.07967,-0.194888 -0.04162,-0.287748 0.117934,-0.287748 0.331139,0 0.905407,-0.656021 1.036411,-1.183957 0.163306,-0.65811 -0.588406,-2.223823 -1.133341,-2.360594 -0.478041,-0.119981 -0.761168,0.0094 -0.761168,0.34792 0,0.130316 -0.06875,0.236937 -0.152769,0.236937 -0.421575,0 -0.716138,-3.233043 -0.430703,-4.727289 0.113319,-0.593217 0.09258,-0.698816 -0.137217,-0.698816 -0.514452,0 -0.922304,0.972827 -0.922969,2.201504 -0.0013,2.390679 0.895401,6.199521 1.745136,7.412688 0.125058,0.178544 0.227378,0.456146 0.227378,0.616895 0,0.35126 0.376653,0.384281 0.648401,0.05684 z m -0.87745,-2.984358 c -0.168023,-0.437858 -0.111999,-0.840517 0.146835,-1.05533 0.520959,-0.432357 1.03462,0.626097 0.54261,1.118107 -0.273563,0.273563 -0.570765,0.246501 -0.689445,-0.06278 z m 2.738602,-2.682395 c 0.04155,-0.158893 -0.109013,-0.886326 -0.334589,-1.616516 -0.43112,-1.39554 -0.413935,-1.829602 0.09845,-2.486606 0.287584,-0.368754 0.314408,-0.373152 0.590689,-0.09687 0.275256,0.275259 0.281952,0.604878 0.03946,1.942462 -0.01434,0.07913 0.05422,0.173726 0.152369,0.210209 0.282595,0.105048 0.753303,-1.132997 0.753303,-1.981314 0,-1.53163 -1.051571,-2.130901 -1.880533,-1.071682 l -0.397117,0.507419 -0.213376,-1.488658 c -0.117357,-0.818763 -0.169719,-1.807182 -0.116359,-2.196487 0.1344,-0.980555 -0.05188,-1.224442 -0.53911,-0.705815 -0.37144,0.39538 -0.381074,0.474751 -0.284633,2.344852 0.125675,2.437044 0.440742,4.076466 1.107872,5.764701 0.513061,1.298355 0.839718,1.577375 1.023574,0.874308 z m 4.12251,-4.950032 c -0.01498,-1.85392 -0.09557,-3.835678 -0.179069,-4.403907 -0.173781,-1.182577 -0.134093,-1.293091 1.069534,-2.978258 0.426561,-0.597217 0.790745,-0.974859 0.809299,-0.839207 0.01856,0.135653 0.08061,0.672098 0.137899,1.192099 0.06845,0.621304 0.178637,0.945458 0.321381,0.945458 0.324089,0 0.416829,-0.388937 0.416829,-1.748102 0,-1.278237 0.303962,-2.198156 0.72632,-2.198156 0.312182,0 0.427253,0.610017 0.271397,1.43874 -0.163985,0.87195 0.154825,0.963091 0.538756,0.154016 0.428754,-0.903529 0.505278,-1.80524 0.202842,-2.390089 -0.31439,-0.607963 -0.480941,-0.632446 -1.223342,-0.179835 l -0.552803,0.337022 0.09629,-1.200881 c 0.05296,-0.660485 0.116742,-1.422858 0.141737,-1.694163 0.05717,-0.620524 -0.289853,-0.65735 -0.723328,-0.07676 -0.22983,0.307833 -0.333716,0.80127 -0.398104,1.890916 -0.118749,2.009652 -0.133253,2.057245 -0.888409,2.915147 -0.36583,0.415604 -0.780668,0.964382 -0.921864,1.219504 -0.241331,0.436048 -0.251782,0.348104 -0.174324,-1.466856 0.04532,-1.061891 0.02018,-1.969168 -0.05588,-2.016167 -0.07605,-0.047 -0.310409,0.15589 -0.520803,0.450866 -0.344466,0.482951 -0.390716,0.765403 -0.464748,2.838307 l -0.08221,2.301984 -0.68291,0.904351 c -0.3756,0.497393 -0.749829,1.163324 -0.83162,1.479847 -0.199893,0.77356 -0.0097,1.755225 0.424222,2.189104 0.422426,0.422429 0.724299,0.295827 1.295842,-0.543467 l 0.369962,-0.543278 0.03235,1.29863 c 0.01779,0.714245 0.01191,2.297525 -0.01309,3.518398 l -0.04544,2.219771 0.465266,-0.822138 0.465265,-0.822137 -0.02724,-3.370762 z M 51.790949,78.00443 c -0.244104,-0.244104 -0.08371,-1.002557 0.342557,-1.619807 l 0.452175,-0.654772 0.05359,0.562084 c 0.02948,0.309147 -0.07425,0.845591 -0.230507,1.192099 -0.28205,0.625473 -0.407267,0.730947 -0.617816,0.520396 z m 3.340363,-3.327572 c 0.09208,-0.485545 0.160034,-1.113184 0.151004,-1.394755 -0.01418,-0.442102 -0.05586,-0.388566 -0.305546,0.392405 -0.159021,0.497393 -0.330938,1.228998 -0.382039,1.62579 -0.0798,0.619621 -0.06031,0.688832 0.138126,0.490404 0.127069,-0.127069 0.306374,-0.6283 0.398455,-1.113844 z M 61.039167,72.562 c 0.150553,-0.573563 0.374189,-3.517313 0.580653,-7.643253 0.08246,-1.647921 0.06766,-1.767595 -0.218702,-1.767595 -0.523406,0 -0.641134,0.348974 -0.764393,2.265837 -0.109916,1.709377 -0.151319,1.879979 -0.528183,2.176422 -0.224908,0.176911 -0.474215,0.281301 -0.554022,0.231979 -0.07981,-0.04932 -0.1451,-0.529266 -0.1451,-1.066538 0,-1.016522 -0.183182,-1.229306 -0.593247,-0.689113 -0.324079,0.426923 -0.294487,2.162499 0.04323,2.535678 0.337353,0.372773 0.850279,0.384636 1.354688,0.03133 l 0.384565,-0.26936 -0.113308,1.379246 c -0.06232,0.758584 -0.181356,1.823199 -0.264523,2.365809 -0.08317,0.542611 -0.149437,1.208542 -0.147262,1.479847 l 0.004,0.493282 0.400241,-0.454798 c 0.220132,-0.250136 0.472765,-0.731087 0.561405,-1.068778 z m 6.033276,-8.786336 c 0.3125,-1.450062 0.523361,-2.777695 0.468581,-2.950295 -0.142365,-0.448552 -0.815982,-0.846149 -1.217602,-0.718679 -0.45035,0.142935 -0.456081,0.846921 -0.0081,0.98912 0.401356,0.127385 0.401356,0.123268 1.64e-4,2.055342 -0.178371,0.859134 -0.362755,2.264989 -0.409741,3.124121 l -0.08543,1.562061 0.341919,-0.712595 c 0.188055,-0.391928 0.597601,-1.899012 0.910102,-3.349075 z m -3.865117,1.707856 c 0.262464,-0.413863 0.477207,-0.943504 0.477207,-1.17698 0,-0.560606 -0.430685,-1.155388 -0.836622,-1.155388 -0.440217,0 -0.57863,0.43929 -0.252098,0.800103 0.325065,0.359191 0.331523,0.792397 0.01994,1.337454 -0.28256,0.494289 -0.327931,1.22064 -0.06614,1.058842 0.09928,-0.06136 0.395248,-0.450171 0.657709,-0.864031 z M 75.88575,56.320592 c 1.239345,-0.612948 2.295014,-1.223007 2.345927,-1.355686 0.129111,-0.336455 -0.209735,-0.692835 -0.658745,-0.692835 -0.466657,0 -4.455207,2.039875 -4.988482,2.551272 -0.517879,0.496632 -0.320319,0.79921 0.452657,0.693279 0.327407,-0.04487 1.609296,-0.583082 2.848643,-1.19603 z m 11.088675,-1.295443 c 0.554527,-0.248858 1.250777,-0.702712 1.547225,-1.008566 0.448743,-0.462986 0.551998,-0.712991 0.616698,-1.493127 0.09257,-1.116333 -0.212501,-1.81176 -1.005208,-2.291403 -0.42936,-0.259794 -0.797263,-0.311823 -2.029695,-0.287043 -1.291982,0.02598 -1.545213,-0.01386 -1.787084,-0.281123 -0.729838,-0.80646 0.466594,-1.793696 2.182481,-1.800875 l 0.863242,-0.0036 V 47.03727 46.215133 h -0.627865 c -1.672126,0 -3.744278,1.061557 -4.295718,2.200682 -0.408058,0.842934 -0.420357,1.204477 -0.0707,2.07835 0.385347,0.963074 1.145424,1.311501 2.860988,1.311501 1.515823,0 1.968872,0.168888 1.968872,0.733965 0,0.847713 -1.134248,1.472617 -2.686792,1.480264 l -1.12473,0.0055 0.09525,0.575496 c 0.05239,0.316523 0.09606,0.677717 0.09706,0.802654 0.0032,0.399034 2.212043,0.15289 3.395983,-0.378431 z m 8.779195,-2.665778 c 0.720326,-0.23807 1.30856,-0.515541 1.307187,-0.616603 -0.0037,-0.267978 -0.413388,-1.596946 -0.499615,-1.620451 -0.0404,-0.011 -0.371812,0.177485 -0.736552,0.418859 -0.364746,0.241377 -0.99368,0.48385 -1.397634,0.538831 -0.608041,0.08276 -0.815732,0.03585 -1.206567,-0.272509 -0.621527,-0.490364 -0.926358,-1.259522 -0.921921,-2.326213 0.005,-1.120311 0.453988,-2.096906 1.240573,-2.696315 0.554882,-0.422842 0.752692,-0.474194 1.826615,-0.474194 h 1.204348 l -1.9e-5,-0.863244 -1.8e-5,-0.863244 h -0.874504 c -3.343301,0 -5.534885,2.286409 -5.338716,5.569711 0.191453,3.204293 2.053627,4.310309 5.396823,3.205372 z M 167.29688,110.794 c -0.36456,-0.74609 -1.2933,-2.34152 -2.06388,-3.5454 l -1.40105,-2.18887 0.0982,-1.2641 c 0.054,-0.69526 0.11566,-1.2851 0.13701,-1.31076 0.0624,-0.075 2.44663,3.08312 3.09936,4.10535 0.32823,0.51401 0.67886,0.98531 0.77919,1.04732 0.12369,0.0764 0.16401,0.82114 0.12523,2.31253 -0.0314,1.20989 -0.0694,2.19995 -0.0842,2.20013 -0.0148,1.6e-4 -0.32529,-0.61011 -0.68983,-1.3562 z M 42.727383,106.35249 c -0.169953,-0.2024 -0.679317,-0.77495 -1.131921,-1.27234 -0.452605,-0.49739 -1.221041,-1.51361 -1.707635,-2.25826 l -0.884717,-1.35391 0.204627,-1.639641 0.204628,-1.639641 0.640757,1.184848 c 0.352416,0.651664 1.059646,1.812654 1.571621,2.579974 0.511976,0.76731 1.032598,1.59973 1.156936,1.8498 0.12434,0.25008 0.325035,0.45469 0.445989,0.45469 0.171479,0 0.19852,0.24446 0.122777,1.10989 -0.05343,0.61044 -0.145948,1.16449 -0.205598,1.23123 -0.05965,0.0667 -0.247512,-0.0443 -0.417464,-0.24664 z M 167.73399,105.8026 c -0.15386,-0.28091 -1.00217,-1.46479 -1.88513,-2.63084 l -1.60539,-2.12008 -0.10525,-1.520185 c -0.0937,-1.352745 -0.16887,-1.624402 -0.68284,-2.466412 -0.31767,-0.520427 -0.66234,-1.109666 -0.76593,-1.309421 -0.21884,-0.421983 -0.7332,-3.00649 -0.62073,-3.118966 0.12174,-0.121733 1.31163,0.537156 1.65428,0.916035 0.43628,0.482405 0.91998,0.455725 0.91998,-0.05074 0,-0.553265 -1.33053,-1.702905 -2.11512,-1.827571 -0.83904,-0.133318 -1.07901,-0.295032 -1.17343,-0.790779 -0.11412,-0.599121 -0.58861,-1.111439 -0.91381,-0.986647 -0.20149,0.07732 -0.24067,0.232347 -0.16314,0.645624 l 0.10203,0.543869 -1.44456,-0.709563 c -0.79451,-0.390258 -2.14749,-1.115672 -3.00663,-1.612031 -0.85913,-0.496359 -1.71004,-0.95108 -1.89092,-1.010492 -0.21638,-0.07108 -0.61001,-0.710062 -1.15099,-1.868415 -2.40559,-5.150958 -5.84749,-10.323352 -9.59214,-14.414837 l -1.33939,-1.463438 1.93058,-0.761218 c 1.06182,-0.418668 2.41152,-0.901012 2.99935,-1.071874 0.58783,-0.170863 1.13027,-0.36334 1.20543,-0.427727 0.0752,-0.06439 -0.0201,-0.424362 -0.21174,-0.799944 -0.19161,-0.37558 -0.41947,-0.869851 -0.50635,-1.098378 l -0.15798,-0.415503 0.78078,0.114214 c 0.42943,0.06282 1.67187,0.357079 2.76098,0.65391 1.08911,0.296832 2.25415,0.59109 2.58899,0.653906 0.49371,0.09262 0.76501,0.312995 1.43516,1.165736 0.98198,1.24955 3.0493,4.258735 3.70001,5.385735 l 0.46239,0.800838 -2.04147,-0.120777 c -1.2738,-0.07536 -2.06647,-0.191012 -2.10796,-0.307555 -0.0366,-0.102726 -0.34234,-0.464248 -0.67947,-0.803379 -0.52292,-0.526014 -0.71916,-0.616604 -1.33566,-0.616604 -1.24696,0 -2.00072,0.951103 -1.0425,1.31542 0.763,0.290091 0.4183,0.42836 -1.02767,0.41222 -1.05536,-0.01177 -1.59209,-0.09675 -2.01423,-0.318848 l -0.5755,-0.302788 0.29947,0.336145 c 0.46684,0.524006 1.89653,1.060439 3.07123,1.152352 0.80539,0.06302 1.18539,0.180801 1.54172,0.477856 0.54373,0.453298 0.85989,0.418005 0.80337,-0.08968 -0.0386,-0.346892 -0.001,-0.351838 2.67942,-0.351838 2.64217,0 2.72956,0.01097 3.10897,0.390378 0.37309,0.373088 3.71518,6.976488 3.96275,7.829705 0.0981,0.338025 0.0788,0.376829 -0.11035,0.221597 -0.34714,-0.284948 -2.14435,-0.836643 -3.1335,-0.9619 -0.76993,-0.0975 -0.90784,-0.17358 -1.12423,-0.620191 -0.47926,-0.989177 -1.59647,-1.402898 -2.77677,-1.028283 -0.31789,0.100894 -0.36587,0.201022 -0.28649,0.597918 0.0636,0.317885 0.0284,0.476729 -0.10552,0.476729 -0.41828,0 -2.72436,-0.859989 -4.10713,-1.531638 -0.79131,-0.38436 -1.43609,-0.659432 -1.43283,-0.611271 0.0152,0.22457 0.81085,0.992142 1.5359,1.481626 0.82488,0.556878 3.63151,1.647847 4.23926,1.647847 0.18784,0 0.59436,0.221977 0.90336,0.493283 0.309,0.271305 0.70983,0.493282 0.89073,0.493282 0.28566,0 0.30403,-0.04652 0.13965,-0.353657 -0.18805,-0.35138 -0.18094,-0.353034 1.1041,-0.256933 1.42772,0.106773 2.79175,0.432581 4.01608,0.959275 0.76836,0.330536 0.82311,0.398771 1.28494,1.601449 1.00361,2.613561 2.02213,6.520191 2.64243,10.135282 0.39947,2.328103 0.8695,7.803122 0.7988,9.304582 l -0.0496,1.05434 z m -0.78903,-3.28256 c 0,-0.59342 -1.24572,-2.37272 -1.66118,-2.37272 -0.43826,0 -0.2896,0.59946 0.4093,1.65051 0.79554,1.19638 1.25188,1.45964 1.25188,0.72221 z m -7.15259,-14.211491 c -0.0911,-0.286904 -0.0296,-0.328854 0.4822,-0.328854 0.77683,0 1.31282,-0.514744 1.17053,-1.124135 -0.0563,-0.24086 -0.40181,-0.723842 -0.76793,-1.073297 -0.64611,-0.616701 -0.69433,-0.633296 -1.64093,-0.564826 -1.14153,0.08257 -1.47403,0.307021 -1.17178,0.791001 0.11078,0.177387 0.20142,0.360521 0.20142,0.406965 0,0.04644 -0.42545,0.08678 -0.94546,0.08964 l -0.94546,0.0052 0.43343,0.381859 c 0.23838,0.210024 0.74031,0.430932 1.11538,0.490909 0.45022,0.07199 0.88961,0.302135 1.29306,0.677273 0.69726,0.648332 0.92572,0.72147 0.77554,0.248269 z m -0.56971,-1.469037 c -0.25566,-0.477699 -0.2073,-0.668519 0.16945,-0.668519 0.84241,0 1.31736,0.692235 0.60579,0.882928 -0.54429,0.145865 -0.58905,0.133483 -0.77524,-0.214409 z m -3.35882,-7.411335 c 0.0911,-0.09114 0.49441,-0.260463 0.89613,-0.376261 0.61351,-0.176841 0.73891,-0.283605 0.78346,-0.667045 0.11026,-0.948669 -0.94695,-1.750669 -2.30777,-1.750669 -0.9398,0 -1.82045,0.735053 -1.28047,1.068778 0.3284,0.20296 0.1512,0.398366 -0.45217,0.498643 -1.06507,0.177008 -1.15334,0.232788 -0.79071,0.499665 0.17555,0.129194 0.6668,0.234898 1.09167,0.234898 0.52693,0 0.89588,0.102795 1.16067,0.323384 0.43976,0.366361 0.66012,0.40768 0.89919,0.168607 z m -0.56034,-1.182586 c -0.32236,-0.322359 -0.2254,-0.624824 0.2003,-0.624824 0.55581,0 0.9178,0.162131 0.9178,0.411068 0,0.392775 -0.78837,0.543492 -1.1181,0.213756 z M 44.129602,103.33149 c -0.187434,-0.23829 -0.340789,-0.65039 -0.340789,-0.91579 0,-0.40042 0.06016,-0.4736 0.353465,-0.43 0.194406,0.0289 0.494866,0.24268 0.667689,0.47508 0.268326,0.36082 0.284893,0.48691 0.113424,0.86324 -0.250506,0.5498 -0.36633,0.55089 -0.793789,0.007 z M 123.45117,83.613056 c -0.001,-1.667927 0.014,-3.032596 0.0345,-3.032596 0.18672,0 0.73104,2.440654 0.73375,3.290068 0.003,0.935049 -0.33275,2.274692 -0.66692,2.661115 -0.0543,0.0627 -0.0998,-1.250659 -0.10134,-2.918587 z m 34.06256,-1.417992 c -0.40185,-0.224888 -0.33239,-0.628039 0.10819,-0.628039 0.36187,0 0.77281,0.269592 0.77281,0.50699 0,0.195792 -0.6001,0.278246 -0.881,0.121049 z m -4.94397,-8.465838 c -0.16767,-0.436954 0.14665,-0.608459 0.65831,-0.359186 0.6876,0.334992 0.69632,0.633323 0.0185,0.633323 -0.38189,0 -0.60652,-0.09098 -0.6768,-0.274137 z m -12.55702,-5.48682 c -1.26959,-1.20952 -3.51961,-3.00147 -5.70857,-4.546392 -6.93778,-4.89653 -16.33642,-8.534496 -24.57996,-9.514241 -0.85172,-0.101228 -0.93262,-0.151435 -1.39025,-0.862726 -0.26725,-0.415384 -0.83719,-1.177342 -1.26652,-1.693238 -0.74606,-0.896485 -3.26261,-4.357179 -3.26261,-4.486657 0,-0.03409 0.22231,-0.154079 0.49404,-0.26663 1.77195,-0.733964 2.16725,-3.38727 0.62879,-4.220567 -0.44828,-0.242813 -0.94157,-0.296866 -2.7257,-0.298669 -1.19809,-0.0012 -2.17849,-0.01452 -2.17866,-0.02956 -1.6e-4,-0.01505 0.44365,-1.069584 0.98626,-2.343414 0.54261,-1.27383 0.98656,-2.394268 0.98656,-2.489863 0,-0.400928 0.37951,0.11892 1.00673,1.378987 0.36797,0.739251 0.92847,1.793172 1.24557,2.342047 l 0.57653,0.997954 2.40852,0.193886 c 8.95964,0.721248 18.84438,3.757159 26.99043,8.289605 4.5959,2.557147 9.6881,6.248796 13.40083,9.71509 0.10302,0.09618 -0.0198,0.116911 -0.32885,0.0555 -1.48236,-0.294521 -5.684,-0.944532 -6.27037,-0.970052 -0.88169,-0.03838 -1.21107,0.243888 -1.21107,1.03781 0,0.753015 0.58442,1.549781 1.01543,1.384384 0.42884,-0.16456 0.47508,-0.515305 0.12637,-0.958615 -0.32712,-0.415856 -0.41646,-0.764734 -0.19635,-0.766679 0.0678,-6.83e-4 1.92013,0.348698 4.11622,0.776215 l 3.99291,0.777304 0.85033,0.785846 c 0.46768,0.432216 0.79581,0.785847 0.72918,0.785847 -0.0666,0 -0.87723,-0.228625 -1.80133,-0.508054 -2.13404,-0.645294 -4.36058,-0.83187 -4.72255,-0.395731 -0.69944,0.842763 0.30743,3.180311 1.09009,2.530763 0.38905,-0.322888 0.27142,-0.92953 -0.22638,-1.167371 -0.26486,-0.126548 -0.47488,-0.375838 -0.50698,-0.601783 -0.0533,-0.375456 -0.0314,-0.382583 0.82214,-0.267438 0.48232,0.06507 1.72785,0.361884 2.76786,0.659599 1.04,0.297716 2.31187,0.633002 2.82636,0.745081 0.7218,0.157235 1.0768,0.348533 1.55433,0.837562 0.34038,0.34858 0.54836,0.632231 0.46218,0.630334 -0.0862,-0.0019 -0.78563,-0.191064 -1.55432,-0.420367 -0.80145,-0.239075 -2.03869,-0.457865 -2.90046,-0.512909 -1.4268,-0.09114 -1.51256,-0.07778 -1.69547,0.26399 -0.21339,0.398725 0.007,1.356987 0.42082,1.833371 0.19659,0.226063 0.0879,0.298436 -0.92141,0.613765 -0.62935,0.196614 -1.79339,0.609378 -2.58674,0.917252 -2.33212,0.905015 -2.26666,0.909384 -3.46393,-0.231238 z m -4.9667,-10.844052 c 0.1903,-0.121314 0.20532,-0.224024 0.0657,-0.449656 -0.19591,-0.31667 -4.47121,-2.572257 -5.19219,-2.739325 -0.4658,-0.10794 -1.01909,0.262844 -0.91945,0.616172 0.0782,0.277355 5.12243,2.718792 5.63485,2.727307 0.0904,0.0015 0.27542,-0.06802 0.41107,-0.154498 z m -11.33054,-4.69169 c 0.63023,-1.445121 1.40263,-3.163041 1.71645,-3.8176 0.31382,-0.654559 0.57058,-1.264996 0.57058,-1.356526 0,-0.09153 -0.17885,-0.166419 -0.39743,-0.166419 -0.2186,0 -0.7545,-0.153052 -1.1909,-0.340118 l -0.79347,-0.340119 -0.33006,0.396256 c -2.05066,2.461967 -3.27731,3.886417 -3.31461,3.849111 -0.025,-0.02498 0.0907,-0.522876 0.2571,-1.106452 0.8551,-2.999222 1.00195,-3.540693 1.00126,-3.691884 -0.001,-0.216125 -1.98647,-0.797314 -2.13759,-0.625708 -0.0641,0.07283 -0.77081,1.05733 -1.57038,2.187769 -0.79958,1.130439 -1.92491,2.710483 -2.50073,3.511208 -0.57582,0.800727 -1.02382,1.47738 -0.99557,1.503674 0.0584,0.05435 1.30011,0.57565 1.37114,0.57565 0.0255,0 0.81189,-1.140087 1.74751,-2.533526 0.93563,-1.39344 1.71119,-2.521823 1.72349,-2.507517 0.0419,0.04871 -0.44694,2.48803 -0.7869,3.926874 -0.18641,0.78895 -0.33518,1.485218 -0.33062,1.547263 0.004,0.06205 0.28984,0.210605 0.63394,0.330136 0.6032,0.209525 0.63746,0.201234 0.95451,-0.230988 0.50201,-0.684371 3.75046,-4.318033 3.80844,-4.260056 0.028,0.02805 -0.43492,1.15575 -1.0288,2.506007 -0.59389,1.350257 -1.1126,2.531558 -1.15268,2.625112 -0.0696,0.162392 1.18789,0.74307 1.46609,0.677013 0.0733,-0.01741 0.649,-1.214038 1.27923,-2.65916 z m -11.75766,-0.884376 c 0.95664,-0.434475 1.63547,-1.219513 2.36039,-2.729681 0.76303,-1.589561 2.03899,-4.688428 1.95864,-4.756856 -0.0318,-0.02706 -0.43411,-0.09716 -0.89408,-0.155782 l -0.8363,-0.106579 -0.62538,1.44083 c -1.33553,3.07698 -1.89034,4.115805 -2.46996,4.624718 -0.70011,0.614697 -1.40259,0.675653 -1.9123,0.165936 -0.50344,-0.503442 -0.34867,-1.681546 0.58049,-4.418602 0.41447,-1.220873 0.75408,-2.302847 0.75471,-2.404384 0.001,-0.159069 -1.63171,-0.440782 -1.77776,-0.306743 -0.0288,0.02647 -0.49128,1.329161 -1.02767,2.894883 -1.07515,3.138392 -1.18702,3.988622 -0.64238,4.881948 0.67694,1.110304 3.01464,1.559268 4.5316,0.870312 z m -10.70303,-5.977123 c 0.0526,-0.293914 0.15019,-0.867354 0.21676,-1.274313 l 0.12105,-0.739923 0.76859,-0.04976 c 1.86729,-0.120897 1.96258,1.907866 0.1145,2.437886 -0.30779,0.08828 -0.72995,0.160501 -0.93812,0.160501 -0.33705,0 -0.36802,-0.05853 -0.28278,-0.534389 z"
       id="path302"
       inkscape:export-filename="logo.png"
       inkscape:export-xdpi="96"
       inkscape:export-ydpi="96" /></g></svg>
